Bloedverwanten aflevering 5 tot en met 8 (2010)

[img]http://img12.imageshack.us/img12/842/hornigold2011031521h40m.png[/img]

Nederland ~ 50 minuten per aflevering ~ geregisseerd door Frank Krom, Anne van der Linden, Pieter van Rijn  ~ met Henriëtte Tol, Derek de Lint, Saskia Temmink, Jeroen Spitzenberger e.a.

Als grootaandeelhouder Bennie de Winter van De Winter Flowers sterft, vervalt zijn niet onaanzienlijke vermogen aan zijn dochter Esther. Mocht haar iets overkomen, dan krijgen haar kinderen alles in handen. Esther heeft geen enkele ambitie zich te bemoeien met de zaak. Ze richt zich liever op haar familie. De Winter Flowers wordt al jaren aangestuurd door Anton, de ex-man van Esther. Tijdens hun huwelijk hebben zij drie kinderen gekregen: Iris, een verantwoordelijke, plichtsgetrouwe maar gevoelsarme dochter, de homosexuele en zachtaardige Thomas en Martijn die alles wil en doet, behalve deugen. Anton is hertrouwd met Fien, met wie hij een dochter heeft, Antje, een zoekende ziel met eetproblemen.

[img]http://img202.imageshack.us/img202/842/hornigold2011031521h40m.png[/img]

Bestandsformaat: Video_TS map
Bestandsgrootte: 4,20 GB
Taal: Nederlands
Ondertitelingen: GEEN
Categorie : Serie
DVD5 of DVD9 : DVD5
Bron : Onbekend, waarschijnlijk van TV opgenomen. Kwaliteit is ok, maar geen dvd-kwaliteit.
Menu: Ja, custom
Extra's: Nee
Genre : Drama
Weblink : http://www.imdb.com/title/tt1464852/

Laatste opmerking: Het kan zijn dat het beeld erg plat is, zet hem dan op 16:9 bij je beeldverhouding en alles is goed.

[img]http://img52.imageshack.us/img52/842/hornigold2011031521h40m.png[/img]

Video en audio informatie:
~~~~~~~~~~~~~~~~~~~~~~
Video
ID                               : 224 (0xE0)
Format                           : MPEG Video
Format version                   : Version 2
Format profile                   : Main@Main
Format settings, BVOP            : Yes
Format settings, Matrix          : Default
Duration                         : 48mn 20s
Bit rate mode                    : Variable
Bit rate                         : 2 711 Kbps
Nominal bit rate                 : 9 608 Kbps
Width                            : 704 pixels
Height                           : 576 pixels
Display aspect ratio             : 16:9
Frame rate                       : 25.000 fps
Standard                         : PAL
Color space                      : YUV
Chroma subsampling               : 4:2:0
Bit depth                        : 8 bits
Scan type                        : Progressive
Compression mode                 : Lossy
Bits/(Pixel*Frame)               : 0.267
Stream size                      : 937 MiB (92%)

Audio
ID                               : 189 (0xBD)-128 (0x80)
Format                           : AC-3
Format/Info                      : Audio Coding 3
Mode extension                   : CM (complete main)
Muxing mode                      : DVD-Video
Duration                         : 48mn 20s
Bit rate mode                    : Constant
Bit rate                         : 192 Kbps
Channel(s)                       : 2 channels
Channel positions                : Front: L R
Sampling rate                    : 48.0 KHz
Bit depth                        : 16 bits
Compression mode                 : Lossy
Stream size                      : 66.4 MiB (6%)
~~~~~~~~~~~~~~~
Hornigold TBS
~~~~~~~~~~~~~~~